# xmcd CD database file
#
# Track frame offsets:
#	150
#	27077
#	45787
#	68737
#	86434
#	107302
#	129759
#	156767
#	180447
#	199199
#	228337
#	251095
#
# Disc length: 3793 seconds
#
# Revision: 0
# Processed by: cddbd v1.5.1PL0 Copyright (c) Steve Scherf et al.
# Submitted via: CDex 1.51
#
DISCID=830ecf0c
DTITLE=Jean-Paul Genrè - Music for Wellness - Power and Balance
DYEAR=2005
DGENRE=Blues
TTITLE0=On The Edge Of Forever
TTITLE1=It's A Terrefic Feeling, Part. 1
TTITLE2=Warm To The Touch
TTITLE3=Dreams Of Love
TTITLE4=Trail Of Tears
TTITLE5=Just Relax
TTITLE6=A Land Before Eden
TTITLE7=When You Were Mine
TTITLE8=Embrace Life
TTITLE9=Romantic Child
TTITLE10=It's A Terrefic Feeling, Part 2
TTITLE11=Traveller
EXTD=YEAR: 2005
EXTT0=
EXTT1=
EXTT2=
EXTT3=
EXTT4=
EXTT5=
EXTT6=
EXTT7=
EXTT8=
EXTT9=
EXTT10=
EXTT11=
PLAYORDER=
